<?xml version="1.0" encoding="UTF-8"?>
<svg xmlns="http://www.w3.org/2000/svg" viewBox="0 0 800 600">
  <defs>
    <linearGradient id="bg" x1="0" y1="0" x2="0" y2="1">
      <stop offset="0" stop-color="#0f3a5a"/>
      <stop offset="1" stop-color="#0a67b1"/>
    </linearGradient>
    <linearGradient id="metal" x1="0" y1="0" x2="1" y2="1">
      <stop offset="0" stop-color="#b6d7ff"/>
      <stop offset="1" stop-color="#5aa0d8"/>
    </linearGradient>
  </defs>
  <rect width="800" height="600" fill="url(#bg)" rx="28"/>
  <!-- column -->
  <rect x="385" y="200" width="30" height="220" fill="url(#metal)" rx="8"/>
  <circle cx="400" cy="200" r="18" fill="url(#metal)"/>
  <!-- base -->
  <ellipse cx="400" cy="450" rx="130" ry="20" fill="#0e2c44" opacity="0.6"/>
  <rect x="330" y="430" width="140" height="14" rx="7" fill="url(#metal)"/>
  <!-- arms -->
  <path d="M200,220 C320,160 480,160 600,220" fill="none" stroke="url(#metal)" stroke-width="12" stroke-linecap="round"/>
  <!-- chains left -->
  <line x1="280" y1="200" x2="280" y2="345" stroke="#c9e6ff" stroke-width="4"/>
  <line x1="340" y1="188" x2="340" y2="345" stroke="#c9e6ff" stroke-width="4"/>
  <!-- chains right -->
  <line x1="520" y1="188" x2="520" y2="345" stroke="#c9e6ff" stroke-width="4"/>
  <line x1="580" y1="200" x2="580" y2="345" stroke="#c9e6ff" stroke-width="4"/>
  <!-- dishes -->
  <ellipse cx="310" cy="360" rx="95" ry="22" fill="#0e2c44" opacity="0.55"/>
  <ellipse cx="550" cy="360" rx="95" ry="22" fill="#0e2c44" opacity="0.55"/>
  <rect x="230" y="345" width="160" height="15" rx="7.5" fill="url(#metal)"/>
  <rect x="470" y="345" width="160" height="15" rx="7.5" fill="url(#metal)"/>
</svg>
